<mxfile host="app.diagrams.net" modified="2023-11-24T19:07:48.414Z" agent="Mozilla/5.0 (Windows NT 10.0; Win64; x64) AppleWebKit/537.36 (KHTML, like Gecko) Chrome/119.0.0.0 Safari/537.36" etag="Cl1lcOtoLHECDYjviTzh" version="22.1.4" type="device">
  <diagram name="Strona-1" id="mpXswFBwe8nGv1H3cpZR">
    <mxGraphModel dx="429" dy="680" grid="1" gridSize="10" guides="1" tooltips="1" connect="1" arrows="1" fold="1" page="1" pageScale="1" pageWidth="827" pageHeight="1169" math="0" shadow="0">
      <root>
        <mxCell id="0" />
        <mxCell id="1" parent="0" />
        <mxCell id="U0H4caSg8XWov2wTC0v4-1" value="" style="html=1;verticalAlign=bottom;startArrow=circle;startFill=1;endArrow=classic;startSize=6;endSize=8;curved=0;rounded=0;endFill=1;" edge="1" parent="1">
          <mxGeometry width="80" relative="1" as="geometry">
            <mxPoint x="110" y="119.44" as="sourcePoint" />
            <mxPoint x="240" y="119.44" as="targetPoint" />
          </mxGeometry>
        </mxCell>
        <mxCell id="U0H4caSg8XWov2wTC0v4-2" value="Użytkownik klika przycisk zaloguj na stronie głównej" style="rounded=1;whiteSpace=wrap;html=1;" vertex="1" parent="1">
          <mxGeometry x="240" y="90" width="120" height="60" as="geometry" />
        </mxCell>
        <mxCell id="U0H4caSg8XWov2wTC0v4-3" value="Użytkownik wpisuje dane logowania" style="rounded=1;whiteSpace=wrap;html=1;" vertex="1" parent="1">
          <mxGeometry x="480" y="90" width="120" height="60" as="geometry" />
        </mxCell>
        <mxCell id="U0H4caSg8XWov2wTC0v4-4" value="" style="endArrow=classic;html=1;rounded=0;exitX=1;exitY=0.5;exitDx=0;exitDy=0;entryX=0;entryY=0.5;entryDx=0;entryDy=0;" edge="1" parent="1" source="U0H4caSg8XWov2wTC0v4-2" target="U0H4caSg8XWov2wTC0v4-3">
          <mxGeometry width="50" height="50" relative="1" as="geometry">
            <mxPoint x="470" y="290" as="sourcePoint" />
            <mxPoint x="520" y="240" as="targetPoint" />
          </mxGeometry>
        </mxCell>
        <mxCell id="U0H4caSg8XWov2wTC0v4-5" value="Wyświetlanie strony &lt;br&gt;logowanie" style="edgeLabel;html=1;align=center;verticalAlign=middle;resizable=0;points=[];" vertex="1" connectable="0" parent="U0H4caSg8XWov2wTC0v4-4">
          <mxGeometry x="-0.1407" relative="1" as="geometry">
            <mxPoint x="3" y="-20" as="offset" />
          </mxGeometry>
        </mxCell>
        <mxCell id="U0H4caSg8XWov2wTC0v4-6" value="Użytkownik zostaje zalogowany na swoje konto" style="rounded=1;whiteSpace=wrap;html=1;" vertex="1" parent="1">
          <mxGeometry x="360" y="250" width="120" height="60" as="geometry" />
        </mxCell>
        <mxCell id="U0H4caSg8XWov2wTC0v4-7" value="" style="endArrow=classic;html=1;rounded=0;exitX=0.25;exitY=1;exitDx=0;exitDy=0;entryX=0.5;entryY=0;entryDx=0;entryDy=0;" edge="1" parent="1" source="U0H4caSg8XWov2wTC0v4-3" target="U0H4caSg8XWov2wTC0v4-6">
          <mxGeometry width="50" height="50" relative="1" as="geometry">
            <mxPoint x="480" y="330" as="sourcePoint" />
            <mxPoint x="530" y="280" as="targetPoint" />
            <Array as="points">
              <mxPoint x="510" y="180" />
              <mxPoint x="420" y="180" />
            </Array>
          </mxGeometry>
        </mxCell>
        <mxCell id="U0H4caSg8XWov2wTC0v4-8" value="Dane logowania poprawne" style="edgeLabel;html=1;align=center;verticalAlign=middle;resizable=0;points=[];" vertex="1" connectable="0" parent="U0H4caSg8XWov2wTC0v4-7">
          <mxGeometry x="-0.069" y="2" relative="1" as="geometry">
            <mxPoint x="-11" y="-12" as="offset" />
          </mxGeometry>
        </mxCell>
        <mxCell id="U0H4caSg8XWov2wTC0v4-9" value="" style="ellipse;html=1;shape=endState;fillColor=#000000;strokeColor=#ff0000;" vertex="1" parent="1">
          <mxGeometry x="405" y="400" width="30" height="30" as="geometry" />
        </mxCell>
        <mxCell id="U0H4caSg8XWov2wTC0v4-10" value="" style="endArrow=classic;html=1;rounded=0;exitX=0.5;exitY=1;exitDx=0;exitDy=0;entryX=0.5;entryY=0;entryDx=0;entryDy=0;" edge="1" parent="1" source="U0H4caSg8XWov2wTC0v4-6" target="U0H4caSg8XWov2wTC0v4-9">
          <mxGeometry width="50" height="50" relative="1" as="geometry">
            <mxPoint x="520" y="340" as="sourcePoint" />
            <mxPoint x="570" y="290" as="targetPoint" />
          </mxGeometry>
        </mxCell>
        <mxCell id="U0H4caSg8XWov2wTC0v4-11" value="" style="endArrow=classic;html=1;rounded=0;exitX=0.68;exitY=1.002;exitDx=0;exitDy=0;exitPerimeter=0;" edge="1" parent="1" source="U0H4caSg8XWov2wTC0v4-3" target="U0H4caSg8XWov2wTC0v4-12">
          <mxGeometry width="50" height="50" relative="1" as="geometry">
            <mxPoint x="570" y="330" as="sourcePoint" />
            <mxPoint x="620" y="280" as="targetPoint" />
            <Array as="points">
              <mxPoint x="562" y="180" />
              <mxPoint x="700" y="180" />
            </Array>
          </mxGeometry>
        </mxCell>
        <mxCell id="U0H4caSg8XWov2wTC0v4-13" value="Dane nie poprawne" style="edgeLabel;html=1;align=center;verticalAlign=middle;resizable=0;points=[];" vertex="1" connectable="0" parent="U0H4caSg8XWov2wTC0v4-11">
          <mxGeometry x="-0.1359" y="-1" relative="1" as="geometry">
            <mxPoint x="1" y="-11" as="offset" />
          </mxGeometry>
        </mxCell>
        <mxCell id="U0H4caSg8XWov2wTC0v4-12" value="Użytkownik podejmuje decyzje co zrobić dalej" style="rounded=1;whiteSpace=wrap;html=1;" vertex="1" parent="1">
          <mxGeometry x="640.0000000000002" y="250" width="120" height="60" as="geometry" />
        </mxCell>
        <mxCell id="U0H4caSg8XWov2wTC0v4-14" value="" style="endArrow=classic;html=1;rounded=0;exitX=1;exitY=0.5;exitDx=0;exitDy=0;entryX=1;entryY=0.5;entryDx=0;entryDy=0;" edge="1" parent="1" source="U0H4caSg8XWov2wTC0v4-12" target="U0H4caSg8XWov2wTC0v4-3">
          <mxGeometry width="50" height="50" relative="1" as="geometry">
            <mxPoint x="570" y="330" as="sourcePoint" />
            <mxPoint x="620" y="280" as="targetPoint" />
            <Array as="points">
              <mxPoint x="800" y="280" />
              <mxPoint x="800" y="120" />
            </Array>
          </mxGeometry>
        </mxCell>
        <mxCell id="U0H4caSg8XWov2wTC0v4-15" value="Ponowna próba logowania" style="edgeLabel;html=1;align=center;verticalAlign=middle;resizable=0;points=[];" vertex="1" connectable="0" parent="U0H4caSg8XWov2wTC0v4-14">
          <mxGeometry x="0.42" y="1" relative="1" as="geometry">
            <mxPoint y="-11" as="offset" />
          </mxGeometry>
        </mxCell>
        <mxCell id="U0H4caSg8XWov2wTC0v4-16" value="" style="endArrow=classic;html=1;rounded=0;exitX=0.5;exitY=1;exitDx=0;exitDy=0;entryX=1;entryY=0.5;entryDx=0;entryDy=0;" edge="1" parent="1" source="U0H4caSg8XWov2wTC0v4-12" target="U0H4caSg8XWov2wTC0v4-9">
          <mxGeometry width="50" height="50" relative="1" as="geometry">
            <mxPoint x="580" y="360" as="sourcePoint" />
            <mxPoint x="700" y="410" as="targetPoint" />
            <Array as="points">
              <mxPoint x="700" y="415" />
            </Array>
          </mxGeometry>
        </mxCell>
        <mxCell id="U0H4caSg8XWov2wTC0v4-17" value="Użytkownik nie podejmuje dalszej próby logowania" style="edgeLabel;html=1;align=center;verticalAlign=middle;resizable=0;points=[];" vertex="1" connectable="0" parent="U0H4caSg8XWov2wTC0v4-16">
          <mxGeometry x="-0.7171" y="5" relative="1" as="geometry">
            <mxPoint x="-135" y="38" as="offset" />
          </mxGeometry>
        </mxCell>
      </root>
    </mxGraphModel>
  </diagram>
</mxfile>
